<svg xmlns="http://www.w3.org/2000/svg" fill="none" viewBox="0 0 301 273" style="&#10;    width: 55%;&#10;    height: 55%;&#10;"><path fill="#2026D2" fill-rule="evenodd" d="M235.001 215.791V56.071l-46.915.15v14.941a58.121 58.121 0 0 0-46.616-19.498c-40.938 0-74.704 36.755-74.704 84.342 0 47.587 33.766 84.342 74.704 84.342a58.049 58.049 0 0 0 46.616-19.498v14.941h46.915Zm-56.856-107.686a36.007 36.007 0 0 1 9.938 27.826c0 23.756-15.688 38.697-37.352 38.996a36.159 36.159 0 0 1-37.353-38.996 36.011 36.011 0 0 1 37.353-38.847 36.006 36.006 0 0 1 27.414 11.021Z" clip-rule="evenodd"/><path fill="#62E1FC" d="M150.882 155.579a19.647 19.647 0 1 0-19.274-19.647 19.42 19.42 0 0 0 19.274 19.647Z"/></svg>